<svg id="Layer_1" enable-background="new 0 0 512 512" height="512" viewBox="0 0 512 512" width="512" xmlns="http://www.w3.org/2000/svg"><g><path d="m416.667 32.134h-51.4v17.133c0 24.813-20.187 45-45 45h-128.534c-24.813 0-45-20.187-45-45v-17.133h-51.4c-8.284 0-15 6.716-15 15v449.866c0 8.284 6.716 15 15 15h321.334c8.284 0 15-6.716 15-15v-449.866c0-8.284-6.716-15-15-15zm-214.327 341.793c5.858 5.857 5.858 15.354 0 21.213-5.857 5.859-15.355 5.857-21.213 0l-5.46-5.46-5.46 5.46c-5.857 5.859-15.355 5.857-21.213 0-5.858-5.858-5.858-15.355 0-21.213l5.46-5.46-5.46-5.46c-5.858-5.857-5.858-15.354 0-21.213 5.857-5.857 15.355-5.859 21.213 0l5.46 5.46 5.46-5.46c5.857-5.857 15.355-5.859 21.213 0 5.858 5.858 5.858 15.355 0 21.213l-5.46 5.46zm16.066-107.321-32.133 32.134c-2.813 2.813-6.628 4.394-10.606 4.394s-7.794-1.58-10.606-4.394l-16.067-16.067c-5.858-5.857-5.858-15.355 0-21.213 5.857-5.857 15.355-5.857 21.213 0l5.461 5.461 21.526-21.527c5.857-5.857 15.355-5.859 21.213 0 5.858 5.857 5.858 15.354-.001 21.212zm0-96.4-32.133 32.134c-2.929 2.929-6.768 4.394-10.606 4.394s-7.678-1.464-10.606-4.393l-16.067-16.067c-5.857-5.857-5.858-15.354-.001-21.213 5.859-5.857 15.356-5.859 21.214 0l5.461 5.46 21.526-21.527c5.857-5.857 15.355-5.859 21.213 0 5.858 5.857 5.858 15.354-.001 21.212zm133.994 213.261h-80.334c-8.284 0-15-6.716-15-15s6.716-15 15-15h80.334c8.284 0 15 6.716 15 15s-6.715 15-15 15zm0-96.401h-80.334c-8.284 0-15-6.716-15-15s6.716-15 15-15h80.334c8.284 0 15 6.716 15 15s-6.715 15-15 15zm0-96.399h-80.334c-8.284 0-15-6.716-15-15s6.716-15 15-15h80.334c8.284 0 15 6.716 15 15s-6.715 15-15 15z"/><path d="m191.733 64.267h128.533c8.284 0 15-6.716 15-15v-34.267c0-8.284-6.716-15-15-15h-128.533c-8.284 0-15 6.716-15 15v34.267c0 8.284 6.716 15 15 15z"/></g></svg>