<?xml version="1.0" encoding="iso-8859-1"?>
<!-- Generator: Adobe Illustrator 19.0.0, SVG Export Plug-In . SVG Version: 6.00 Build 0)  -->
<svg version="1.1" id="Capa_1" xmlns="http://www.w3.org/2000/svg" xmlns:xlink="http://www.w3.org/1999/xlink" x="0px" y="0px"
	 viewBox="0 0 512 512" style="enable-background:new 0 0 512 512;" xml:space="preserve">
<g>
	<g>
		<path d="M436,272c-5.852,0-11.446,1.123-16.579,3.164C414.211,256.076,396.718,242,376,242c-11.515,0-22.033,4.347-30,11.486
			C338.033,246.347,327.515,242,316,242c-5.257,0-10.307,0.906-15,2.57V197c0-24.813-20.187-45-45-45s-45,20.187-45,45v146.365
			l-6.972-6.972c-17.586-17.585-46.048-17.588-63.635,0c-17.586,17.586-17.588,46.048,0,63.635l107.578,107.578
			c2.813,2.813,6.628,4.393,10.606,4.393H436c6.202,0,11.765-3.817,13.996-9.604C470.568,449.032,481,392.977,481,335.788V317
			C481,292.188,460.813,272,436,272z M425.578,482H264.792L161.606,378.815c-5.861-5.861-5.862-15.347,0-21.209
			c5.861-5.862,15.346-5.861,21.208,0l32.58,32.581c4.29,4.289,10.742,5.572,16.346,3.249c5.604-2.322,9.258-7.791,9.258-13.858V197
			c0-8.271,6.729-15,15-15s15,6.729,15,15v120c0,8.284,6.716,15,15,15s15-6.716,15-15v-30c0-8.271,6.729-15,15-15s15,6.729,15,15v30
			c0,8.284,6.716,15,15,15s15-6.716,15-15v-30c0-8.271,6.729-15,15-15s15,6.729,15,15v30c0,8.284,6.716,15,15,15s15-6.716,15-15
			c0-8.271,6.729-15,15-15s15,6.729,15,15v18.788H451C451,385.851,442.451,434.989,425.578,482z"/>
	</g>
</g>
<g>
	<g>
		<path d="M407,0c-57.897,0-105,47.103-105,105s47.103,105,105,105c57.897,0,105-47.103,105-105C512,47.103,464.897,0,407,0z
			 M407,180c-41.355,0-75-33.645-75-75s33.645-75,75-75c41.355,0,75,33.645,75,75S448.355,180,407,180z"/>
	</g>
</g>
<g>
	<g>
		<path d="M105,0C47.103,0,0,47.104,0,105s47.103,105,105,105c57.897,0,105-47.103,105-105S162.897,0,105,0z M105,180
			c-41.355,0-75-33.645-75-75s33.645-75,75-75s75,33.645,75,75S146.355,180,105,180z"/>
	</g>
</g>
<g>
	<g>
		<path d="M447.607,124.394L428.213,105l19.393-19.393c5.859-5.858,5.859-15.356,0-21.214c-5.857-5.858-15.355-5.858-21.213,0
			L407,83.787l-19.394-19.394c-5.857-5.858-15.355-5.858-21.213,0c-5.858,5.858-5.858,15.355,0,21.213L385.787,105l-19.393,19.393
			c-5.858,5.858-5.858,15.355,0,21.213c5.857,5.857,15.355,5.858,21.213,0L407,126.214l19.394,19.394
			c5.857,5.857,15.355,5.858,21.213,0C453.465,139.749,453.465,130.253,447.607,124.394z"/>
	</g>
</g>
<g>
	<g>
		<path d="M160.606,64.393c-5.857-5.858-15.355-5.858-21.213,0L90,113.787L70.606,94.393c-5.857-5.858-15.355-5.858-21.213,0
			c-5.858,5.858-5.858,15.355,0,21.213l30,30c5.857,5.857,15.355,5.858,21.213,0l60-60C166.464,79.75,166.464,70.251,160.606,64.393
			z"/>
	</g>
</g>
<g>
</g>
<g>
</g>
<g>
</g>
<g>
</g>
<g>
</g>
<g>
</g>
<g>
</g>
<g>
</g>
<g>
</g>
<g>
</g>
<g>
</g>
<g>
</g>
<g>
</g>
<g>
</g>
<g>
</g>
</svg>
