<svg id="Capa_1" enable-background="new 0 0 512 512" height="512" viewBox="0 0 512 512" width="512" xmlns="http://www.w3.org/2000/svg"><g><path d="m346 0c-90.981 0-165 75.019-165 166s74.019 165 165 165 166-74.019 166-165-75.019-166-166-166zm51.211 196-21.211 21.211-30-30-30 30-21.211-21.211 30-30-30-30 21.211-21.211 30 30 30-30 21.211 21.211-30 30z"/><path d="m151 397.211-51.211-51.211 21.211-21.211 30 30 54.448-54.448c-30.059-31.439-49.958-72.686-53.652-118.621-84.343 7.24-151.796 78.092-151.796 164.28 0 90.981 75.019 166 166 166 86.188 0 157.04-67.453 164.28-151.797-38.438-3.091-73.405-17.758-102.328-39.944z"/></g></svg>